<svg width="26" height="26" viewBox="0 0 26 26" fill="none" xmlns="http://www.w3.org/2000/svg">
<g clip-path="url(#clip0_8415_6744)">
<path d="M7.3125 7.85417C7.3125 9.29075 7.94025 10.6684 9.05765 11.6844C10.1751 12.7001 11.6906 13.2708 13.2708 13.2708C14.8511 13.2708 16.3666 12.7001 17.484 11.6844C18.6014 10.6684 19.2292 9.29075 19.2292 7.85417C19.2292 6.41759 18.6014 5.03991 17.484 4.02398C16.3666 3.00822 14.8511 2.4375 13.2708 2.4375C11.6906 2.4375 10.1751 3.00822 9.05765 4.02398C7.94025 5.03991 7.3125 6.41759 7.3125 7.85417Z" stroke="white" stroke-width="2" stroke-linecap="round" stroke-linejoin="round"/>
<path d="M23.5628 25.1875C23.2277 22.7879 21.9999 20.5869 20.1072 18.9932C18.2145 17.3993 15.7855 16.5208 13.2712 16.5208C10.7568 16.5208 8.32781 17.3993 6.43513 18.9932C4.54242 20.5869 3.31457 22.7879 2.97949 25.1875" stroke="white" stroke-width="2" stroke-linecap="round" stroke-linejoin="round"/>
</g>
<defs>
<clipPath id="clip0_8415_6744">
<rect width="26" height="26" fill="white"/>
</clipPath>
</defs>
</svg>
